<svg width="410" height="410" viewBox="0 0 410 410" fill="none" xmlns="http://www.w3.org/2000/svg">
<mask id="mask0_4_22" style="mask-type:luminance" maskUnits="userSpaceOnUse" x="0" y="0" width="410" height="410">
<path d="M205 410C318.218 410 410 318.218 410 205C410 91.7816 318.218 0 205 0C91.7816 0 0 91.7816 0 205C0 318.218 91.7816 410 205 410Z" fill="white"/>
</mask>
<g mask="url(#mask0_4_22)">
<path d="M205 410C318.218 410 410 318.218 410 205C410 91.7816 318.218 0 205 0C91.7816 0 0 91.7816 0 205C0 318.218 91.7816 410 205 410Z" fill="url(#paint0_linear_4_22)"/>
<path d="M75 245C152.32 245 215 182.32 215 105C215 27.6801 152.32 -35 75 -35C-2.31986 -35 -65 27.6801 -65 105C-65 182.32 -2.31986 245 75 245Z" fill="url(#paint1_radial_4_22)"/>
<path d="M325 455C413.366 455 485 383.366 485 295C485 206.634 413.366 135 325 135C236.634 135 165 206.634 165 295C165 383.366 236.634 455 325 455Z" fill="url(#paint2_radial_4_22)"/>
<path opacity="0.25" d="M355 165C404.706 165 445 124.706 445 75C445 25.2944 404.706 -15 355 -15C305.294 -15 265 25.2944 265 75C265 124.706 305.294 165 355 165Z" fill="#7C3AED"/>
<path opacity="0.3" d="M35 415C79.1828 415 115 379.183 115 335C115 290.817 79.1828 255 35 255C-9.18278 255 -45 290.817 -45 335C-45 379.183 -9.18278 415 35 415Z" fill="#0E7490"/>
<g opacity="0.5" filter="url(#filter0_f_4_22)">
<path d="M455 -45H-45V455H455V-45Z" fill="url(#paint3_linear_4_22)"/>
</g>
</g>
<path d="M205 409C317.666 409 409 317.666 409 205C409 92.3339 317.666 1 205 1C92.3339 1 1 92.3339 1 205C1 317.666 92.3339 409 205 409Z" stroke="white" stroke-opacity="0.45" stroke-width="1.2"/>
<path d="M232.307 140C267.785 140 299.42 154.649 320.001 177.523C310.112 184.885 301.668 193.732 295.101 203.682C281.746 185.413 258.611 173.333 232.307 173.333C190.957 173.333 157.436 203.181 157.436 240C157.436 276.819 190.957 306.666 232.307 306.666C253.226 306.666 272.141 299.026 285.726 286.71C289.962 297.717 296.293 307.857 304.297 316.753C284.804 331.264 259.702 340 232.307 340C170.281 340 120 295.229 120 240C120 184.772 170.282 140 232.307 140Z" fill="white"/>
<mask id="path-10-inside-1_4_22" fill="white">
<path d="M217.455 64C267.785 64.0001 312.835 83.9352 343.001 115.338C328.832 126.277 316.81 139.325 307.57 153.929C287.773 128.792 254.794 112.333 217.455 112.333C156.905 112.333 107.819 155.613 107.818 209C107.819 262.387 156.905 305.666 217.455 305.666C248.892 305.666 277.238 293.999 297.229 275.309C303.921 291.065 313.631 305.521 325.741 318.128C296.812 340.462 258.928 354 217.455 354C126.629 354 53 289.081 53 209C53.0003 128.919 126.629 64 217.455 64Z"/>
</mask>
<path d="M217.455 64C267.785 64.0001 312.835 83.9352 343.001 115.338C328.832 126.277 316.81 139.325 307.57 153.929C287.773 128.792 254.794 112.333 217.455 112.333C156.905 112.333 107.819 155.613 107.818 209C107.819 262.387 156.905 305.666 217.455 305.666C248.892 305.666 277.238 293.999 297.229 275.309C303.921 291.065 313.631 305.521 325.741 318.128C296.812 340.462 258.928 354 217.455 354C126.629 354 53 289.081 53 209C53.0003 128.919 126.629 64 217.455 64Z" fill="white"/>
<path d="M217.455 64V63V63V64ZM343.001 115.338L343.612 116.129L344.494 115.449L343.722 114.645L343.001 115.338ZM307.57 153.929L306.785 154.547L307.659 155.658L308.415 154.463L307.57 153.929ZM217.455 112.333V111.333V111.333V112.333ZM107.818 209L106.818 209V209H107.818ZM217.455 305.666V306.666V306.666V305.666ZM297.229 275.309L298.15 274.918L297.591 273.602L296.547 274.578L297.229 275.309ZM325.741 318.128L326.352 318.919L327.234 318.239L326.462 317.435L325.741 318.128ZM217.455 354V355V355V354ZM53 209H52V209H53ZM217.455 64V65C267.523 65.0001 312.309 84.8315 342.28 116.031L343.001 115.338L343.722 114.645C313.36 83.0389 268.047 63.0001 217.455 63V64ZM343.001 115.338L342.39 114.546C328.133 125.553 316.031 138.687 306.725 153.394L307.57 153.929L308.415 154.463C317.59 139.963 329.53 127.001 343.612 116.129L343.001 115.338ZM307.57 153.929L308.356 153.31C288.358 127.919 255.084 111.333 217.455 111.333V112.333V113.333C254.504 113.333 287.187 129.664 306.785 154.547L307.57 153.929ZM217.455 112.333V111.333C156.474 111.333 106.819 154.946 106.818 209L107.818 209L108.818 209C108.819 156.28 157.335 113.333 217.455 113.333V112.333ZM107.818 209H106.818C106.819 263.054 156.474 306.666 217.455 306.666V305.666V304.666C157.335 304.666 108.819 261.721 108.818 209H107.818ZM217.455 305.666V306.666C249.139 306.666 277.73 294.907 297.912 276.039L297.229 275.309L296.547 274.578C276.746 293.09 248.646 304.666 217.455 304.666V305.666ZM297.229 275.309L296.309 275.7C303.051 291.574 312.83 306.131 325.02 318.821L325.741 318.128L326.462 317.435C314.431 304.911 304.791 290.556 298.15 274.918L297.229 275.309ZM325.741 318.128L325.13 317.336C296.379 339.533 258.71 353 217.455 353V354V355C259.145 355 297.245 341.391 326.352 318.919L325.741 318.128ZM217.455 354V353C127.059 353 54 288.414 54 209H53H52C52 289.748 126.199 355 217.455 355V354ZM53 209H54C54.0003 129.586 127.06 65 217.455 65V64V63C126.199 63 52.0003 128.252 52 209H53Z" fill="#2563B0" mask="url(#path-10-inside-1_4_22)"/>
<defs>
<filter id="filter0_f_4_22" x="-69" y="-69" width="548" height="548" filterUnits="userSpaceOnUse" color-interpolation-filters="sRGB">
<feFlood flood-opacity="0" result="BackgroundImageFix"/>
<feBlend mode="normal" in="SourceGraphic" in2="BackgroundImageFix" result="shape"/>
<feGaussianBlur stdDeviation="12" result="effect1_foregroundBlur_4_22"/>
</filter>
<linearGradient id="paint0_linear_4_22" x1="0" y1="0" x2="410" y2="410" gradientUnits="userSpaceOnUse">
<stop stop-color="#1A3A6E"/>
<stop offset="0.5" stop-color="#2563B0"/>
<stop offset="1" stop-color="#06B6D4"/>
</linearGradient>
<radialGradient id="paint1_radial_4_22" cx="0" cy="0" r="1" gradientUnits="userSpaceOnUse" gradientTransform="translate(75 105) scale(140)">
<stop stop-color="#60A5FA" stop-opacity="0.6"/>
<stop offset="1" stop-color="#3B82F6" stop-opacity="0"/>
</radialGradient>
<radialGradient id="paint2_radial_4_22" cx="0" cy="0" r="1" gradientUnits="userSpaceOnUse" gradientTransform="translate(325 295) scale(160)">
<stop stop-color="#22D3EE" stop-opacity="0.5"/>
<stop offset="1" stop-color="#06B6D4" stop-opacity="0"/>
</radialGradient>
<linearGradient id="paint3_linear_4_22" x1="-45" y1="-45" x2="455" y2="455" gradientUnits="userSpaceOnUse">
<stop stop-color="#1A3A6E"/>
<stop offset="0.5" stop-color="#2563B0"/>
<stop offset="1" stop-color="#06B6D4"/>
</linearGradient>
</defs>
</svg>
